<svg id="Layer_1" data-name="Layer 1" xmlns="http://www.w3.org/2000/svg" xmlns:xlink="http://www.w3.org/1999/xlink" viewBox="0 0 184.35 33.16"><defs><style>.cls-1{fill:url(#linear-gradient);}.cls-2{font-size:29.14px;font-family:DrumNBass, Drum N Bass;letter-spacing:-0.05em;}.cls-3{letter-spacing:0.01em;}.cls-4{letter-spacing:-0.11em;}.cls-5{letter-spacing:0em;}.cls-6{font-size:29.48px;font-family:DESIGNERRegular, DESIGNER;letter-spacing:0em;}</style><linearGradient id="linear-gradient" x1="1.11" y1="18.48" x2="52.24" y2="18.48" gradientUnits="userSpaceOnUse"><stop offset="0" stop-color="#3dc6f3"/><stop offset="1" stop-color="#2b388f"/></linearGradient></defs><path class="cls-1" d="M4.16,4.34V7.19H9.25V9.63H1.11V1.9H15.88V22h3.57V8.91h0V7.19h12A12.35,12.35,0,0,1,39,9.63H22.5V24.47H12.82V4.34ZM31.48,35.06A23.6,23.6,0,0,0,46.16,30.2a15.05,15.05,0,0,0,6.08-11.72h0c-1.56,7.9-10,14-20.3,14.15H15.88V29.77h15.6a19.83,19.83,0,0,0,12.34-4.08,12.68,12.68,0,0,0,5.11-9.86A12.66,12.66,0,0,0,43.82,6,19.83,19.83,0,0,0,31.48,1.9h-12V4.34h12A16.35,16.35,0,0,1,41.66,7.7a10.47,10.47,0,0,1,4.21,8.13A10.45,10.45,0,0,1,41.66,24a16.36,16.36,0,0,1-10.18,3.37H12.82v7.73H31.48Z" transform="translate(-1.11 -1.9)"/><text class="cls-2" transform="translate(52.5 26.89) scale(1.07 1)">T<tspan class="cls-3" x="17.03" y="0">O</tspan><tspan class="cls-4" x="38.69" y="0">K</tspan><tspan class="cls-5" x="55.3" y="0">O</tspan><tspan class="cls-6" x="76.65" y="0">DEV</tspan></text></svg>