<svg id="Layer_1" data-name="Layer 1" xmlns="http://www.w3.org/2000/svg" xmlns:xlink="http://www.w3.org/1999/xlink" viewBox="0 0 1617.17 343.26"><defs><style>.cls-1{fill:url(#linear-gradient);}.cls-2{font-size:260px;font-family:DrumNBass, Drum N Bass;}.cls-3{letter-spacing:-0.05em;}.cls-4{letter-spacing:0.01em;}.cls-5{letter-spacing:-0.11em;}.cls-6{font-size:263px;font-family:DESIGNERRegular, DESIGNER;}</style><linearGradient id="linear-gradient" x1="69.98" y1="540" x2="548.54" y2="540" gradientUnits="userSpaceOnUse"><stop offset="0" stop-color="#3dc6f3"/><stop offset="1" stop-color="#2b388f"/></linearGradient></defs><path class="cls-1" d="M98.57,393.62v29.53h47.62V448.4H70v-80H208.21V576.81h33.42V441h0V423.15H354.25c27,0,52.08,9.47,70.51,25.25H270.22V602.06h-90.6V393.62Zm255.68,318c53.65,0,102.22-19.21,137.39-50.27s56.9-74,56.9-121.36v-.09c-14.61,81.8-93.82,144.62-190,146.42-1.42,0-2.84,0-4.26,0h-146V656.85h146c45.09,0,85.91-16.15,115.46-42.25s47.83-62.16,47.83-102-18.28-75.89-47.83-102-70.37-42.25-115.46-42.25H241.64v25.25H354.25c37.19,0,70.87,13.32,95.25,34.85S489,479.75,489,512.61s-15.08,62.6-39.45,84.13-58.06,34.86-95.25,34.86H179.62v80H354.25Z" transform="translate(-69.98 -368.37)"/><text class="cls-2" transform="translate(519.31 251)"><tspan class="cls-3">T</tspan><tspan class="cls-4" x="151.96" y="0">O</tspan><tspan class="cls-5" x="345.19" y="0">K</tspan><tspan x="493.47" y="0">O</tspan><tspan class="cls-6" x="683.9" y="0">DEV</tspan></text></svg>